<mxfile host="Electron" modified="2023-12-18T23:32:33.472Z" agent="Mozilla/5.0 (Macintosh; Intel Mac OS X 10_15_7) AppleWebKit/537.36 (KHTML, like Gecko) draw.io/22.1.11 Chrome/114.0.5735.289 Electron/25.9.8 Safari/537.36" etag="n8FLzzppS1yolaeTG6Ek" version="22.1.11" type="device">
  <diagram name="Page-1" id="2YBvvXClWsGukQMizWep">
    <mxGraphModel dx="3326" dy="1987" grid="1" gridSize="10" guides="1" tooltips="1" connect="1" arrows="1" fold="1" page="1" pageScale="1" pageWidth="850" pageHeight="1100" math="0" shadow="0">
      <root>
        <mxCell id="0" />
        <mxCell id="1" parent="0" />
        <mxCell id="mjiUjwl8vzSuEEX9nJL5-1" value="T1" style="rounded=0;whiteSpace=wrap;html=1;" parent="1" vertex="1">
          <mxGeometry x="125" y="190" width="120" height="60" as="geometry" />
        </mxCell>
        <mxCell id="mjiUjwl8vzSuEEX9nJL5-2" value="Database" style="rounded=0;whiteSpace=wrap;html=1;" parent="1" vertex="1">
          <mxGeometry x="405" y="190" width="120" height="60" as="geometry" />
        </mxCell>
        <mxCell id="mjiUjwl8vzSuEEX9nJL5-3" value="T2" style="rounded=0;whiteSpace=wrap;html=1;" parent="1" vertex="1">
          <mxGeometry x="685" y="190" width="120" height="60" as="geometry" />
        </mxCell>
        <mxCell id="mjiUjwl8vzSuEEX9nJL5-4" value="" style="endArrow=none;html=1;rounded=0;entryX=0.5;entryY=1;entryDx=0;entryDy=0;" parent="1" target="mjiUjwl8vzSuEEX9nJL5-1" edge="1">
          <mxGeometry width="50" height="50" relative="1" as="geometry">
            <mxPoint x="185" y="600" as="sourcePoint" />
            <mxPoint x="425" y="430" as="targetPoint" />
          </mxGeometry>
        </mxCell>
        <mxCell id="mjiUjwl8vzSuEEX9nJL5-5" value="" style="endArrow=none;html=1;rounded=0;entryX=0.5;entryY=1;entryDx=0;entryDy=0;" parent="1" edge="1">
          <mxGeometry width="50" height="50" relative="1" as="geometry">
            <mxPoint x="744.5" y="600" as="sourcePoint" />
            <mxPoint x="744.5" y="250" as="targetPoint" />
          </mxGeometry>
        </mxCell>
        <mxCell id="mjiUjwl8vzSuEEX9nJL5-6" value="" style="endArrow=none;html=1;rounded=0;entryX=0.5;entryY=1;entryDx=0;entryDy=0;" parent="1" edge="1">
          <mxGeometry width="50" height="50" relative="1" as="geometry">
            <mxPoint x="464.5" y="600" as="sourcePoint" />
            <mxPoint x="464.5" y="250" as="targetPoint" />
          </mxGeometry>
        </mxCell>
        <mxCell id="mjiUjwl8vzSuEEX9nJL5-7" value="&lt;b&gt;&lt;font size=&quot;1&quot; style=&quot;&quot;&gt;&lt;u style=&quot;font-size: 16px;&quot;&gt;Create Projection:&lt;/u&gt;&lt;/font&gt;&lt;/b&gt;" style="text;html=1;align=center;verticalAlign=middle;resizable=0;points=[];autosize=1;strokeColor=none;fillColor=none;" parent="1" vertex="1">
          <mxGeometry x="-15" y="60" width="160" height="30" as="geometry" />
        </mxCell>
        <mxCell id="mjiUjwl8vzSuEEX9nJL5-8" value="Phantom Read:" style="text;html=1;align=center;verticalAlign=middle;resizable=0;points=[];autosize=1;strokeColor=none;fillColor=none;" parent="1" vertex="1">
          <mxGeometry x="40" y="118" width="110" height="30" as="geometry" />
        </mxCell>
        <mxCell id="mjiUjwl8vzSuEEX9nJL5-9" value="" style="endArrow=classic;html=1;rounded=0;" parent="1" edge="1">
          <mxGeometry width="50" height="50" relative="1" as="geometry">
            <mxPoint x="185" y="300" as="sourcePoint" />
            <mxPoint x="465" y="300" as="targetPoint" />
          </mxGeometry>
        </mxCell>
        <mxCell id="mjiUjwl8vzSuEEX9nJL5-10" value="The create projection endpoint retrieves&amp;nbsp;&lt;br&gt;logs to create the projection" style="text;html=1;align=center;verticalAlign=middle;resizable=0;points=[];autosize=1;strokeColor=none;fillColor=none;" parent="1" vertex="1">
          <mxGeometry x="205" y="263" width="240" height="40" as="geometry" />
        </mxCell>
        <mxCell id="mjiUjwl8vzSuEEX9nJL5-11" value="" style="endArrow=classic;html=1;rounded=0;" parent="1" edge="1">
          <mxGeometry width="50" height="50" relative="1" as="geometry">
            <mxPoint x="745" y="360" as="sourcePoint" />
            <mxPoint x="465" y="360" as="targetPoint" />
          </mxGeometry>
        </mxCell>
        <mxCell id="mjiUjwl8vzSuEEX9nJL5-12" value="User begins to create the log" style="text;html=1;align=center;verticalAlign=middle;resizable=0;points=[];autosize=1;strokeColor=none;fillColor=none;" parent="1" vertex="1">
          <mxGeometry x="515" y="328" width="180" height="30" as="geometry" />
        </mxCell>
        <mxCell id="mjiUjwl8vzSuEEX9nJL5-13" value="" style="endArrow=classic;html=1;rounded=0;" parent="1" edge="1">
          <mxGeometry width="50" height="50" relative="1" as="geometry">
            <mxPoint x="185" y="440" as="sourcePoint" />
            <mxPoint x="465" y="440" as="targetPoint" />
          </mxGeometry>
        </mxCell>
        <mxCell id="mjiUjwl8vzSuEEX9nJL5-14" value="The projection is created, but it doesn&#39;t take into&amp;nbsp;&lt;br&gt;account the log that T2 has created." style="text;html=1;align=center;verticalAlign=middle;resizable=0;points=[];autosize=1;strokeColor=none;fillColor=none;" parent="1" vertex="1">
          <mxGeometry x="185" y="403" width="280" height="40" as="geometry" />
        </mxCell>
        <mxCell id="mjiUjwl8vzSuEEX9nJL5-15" value="" style="endArrow=classic;html=1;rounded=0;" parent="1" edge="1">
          <mxGeometry width="50" height="50" relative="1" as="geometry">
            <mxPoint x="745" y="520" as="sourcePoint" />
            <mxPoint x="465" y="520" as="targetPoint" />
          </mxGeometry>
        </mxCell>
        <mxCell id="mjiUjwl8vzSuEEX9nJL5-16" value="The creation of the log is finished" style="text;html=1;align=center;verticalAlign=middle;resizable=0;points=[];autosize=1;strokeColor=none;fillColor=none;" parent="1" vertex="1">
          <mxGeometry x="505" y="488" width="200" height="30" as="geometry" />
        </mxCell>
        <mxCell id="mjiUjwl8vzSuEEX9nJL5-17" value="&lt;font style=&quot;font-size: 16px;&quot;&gt;&lt;u&gt;&lt;b&gt;Create Goal:&lt;/b&gt;&lt;/u&gt;&lt;/font&gt;" style="text;html=1;align=center;verticalAlign=middle;resizable=0;points=[];autosize=1;strokeColor=none;fillColor=none;" parent="1" vertex="1">
          <mxGeometry x="-15" y="678" width="120" height="30" as="geometry" />
        </mxCell>
        <mxCell id="mjiUjwl8vzSuEEX9nJL5-18" value="Phantom Read:" style="text;html=1;align=center;verticalAlign=middle;resizable=0;points=[];autosize=1;strokeColor=none;fillColor=none;" parent="1" vertex="1">
          <mxGeometry x="40" y="728" width="110" height="30" as="geometry" />
        </mxCell>
        <mxCell id="mjiUjwl8vzSuEEX9nJL5-19" value="T1" style="rounded=0;whiteSpace=wrap;html=1;" parent="1" vertex="1">
          <mxGeometry x="95" y="790" width="120" height="60" as="geometry" />
        </mxCell>
        <mxCell id="mjiUjwl8vzSuEEX9nJL5-20" value="Database" style="rounded=0;whiteSpace=wrap;html=1;" parent="1" vertex="1">
          <mxGeometry x="375" y="790" width="120" height="60" as="geometry" />
        </mxCell>
        <mxCell id="mjiUjwl8vzSuEEX9nJL5-21" value="T2" style="rounded=0;whiteSpace=wrap;html=1;" parent="1" vertex="1">
          <mxGeometry x="655" y="790" width="120" height="60" as="geometry" />
        </mxCell>
        <mxCell id="mjiUjwl8vzSuEEX9nJL5-22" value="" style="endArrow=none;html=1;rounded=0;entryX=0.5;entryY=1;entryDx=0;entryDy=0;" parent="1" target="mjiUjwl8vzSuEEX9nJL5-19" edge="1">
          <mxGeometry width="50" height="50" relative="1" as="geometry">
            <mxPoint x="155" y="1200" as="sourcePoint" />
            <mxPoint x="395" y="1030" as="targetPoint" />
          </mxGeometry>
        </mxCell>
        <mxCell id="mjiUjwl8vzSuEEX9nJL5-23" value="" style="endArrow=none;html=1;rounded=0;entryX=0.5;entryY=1;entryDx=0;entryDy=0;" parent="1" edge="1">
          <mxGeometry width="50" height="50" relative="1" as="geometry">
            <mxPoint x="714.5" y="1200" as="sourcePoint" />
            <mxPoint x="714.5" y="850" as="targetPoint" />
          </mxGeometry>
        </mxCell>
        <mxCell id="mjiUjwl8vzSuEEX9nJL5-24" value="" style="endArrow=none;html=1;rounded=0;entryX=0.5;entryY=1;entryDx=0;entryDy=0;" parent="1" edge="1">
          <mxGeometry width="50" height="50" relative="1" as="geometry">
            <mxPoint x="434.5" y="1200" as="sourcePoint" />
            <mxPoint x="434.5" y="850" as="targetPoint" />
          </mxGeometry>
        </mxCell>
        <mxCell id="mjiUjwl8vzSuEEX9nJL5-25" value="" style="endArrow=classic;html=1;rounded=0;" parent="1" edge="1">
          <mxGeometry width="50" height="50" relative="1" as="geometry">
            <mxPoint x="155" y="900" as="sourcePoint" />
            <mxPoint x="435" y="900" as="targetPoint" />
          </mxGeometry>
        </mxCell>
        <mxCell id="mjiUjwl8vzSuEEX9nJL5-26" value="The get workouts endpoint begins to read&lt;br&gt;workouts for a specific user" style="text;html=1;align=center;verticalAlign=middle;resizable=0;points=[];autosize=1;strokeColor=none;fillColor=none;" parent="1" vertex="1">
          <mxGeometry x="175" y="863" width="240" height="40" as="geometry" />
        </mxCell>
        <mxCell id="mjiUjwl8vzSuEEX9nJL5-27" value="" style="endArrow=classic;html=1;rounded=0;" parent="1" edge="1">
          <mxGeometry width="50" height="50" relative="1" as="geometry">
            <mxPoint x="715" y="960" as="sourcePoint" />
            <mxPoint x="435" y="960" as="targetPoint" />
          </mxGeometry>
        </mxCell>
        <mxCell id="mjiUjwl8vzSuEEX9nJL5-28" value="The create goal endpoint starts creating&amp;nbsp;&lt;br&gt;a new workout" style="text;html=1;align=center;verticalAlign=middle;resizable=0;points=[];autosize=1;strokeColor=none;fillColor=none;" parent="1" vertex="1">
          <mxGeometry x="455" y="923" width="240" height="40" as="geometry" />
        </mxCell>
        <mxCell id="mjiUjwl8vzSuEEX9nJL5-29" value="" style="endArrow=classic;html=1;rounded=0;" parent="1" edge="1">
          <mxGeometry width="50" height="50" relative="1" as="geometry">
            <mxPoint x="155" y="1040" as="sourcePoint" />
            <mxPoint x="435" y="1040" as="targetPoint" />
          </mxGeometry>
        </mxCell>
        <mxCell id="mjiUjwl8vzSuEEX9nJL5-30" value="The workouts for the user are read and returned" style="text;html=1;align=center;verticalAlign=middle;resizable=0;points=[];autosize=1;strokeColor=none;fillColor=none;" parent="1" vertex="1">
          <mxGeometry x="155" y="1008" width="280" height="30" as="geometry" />
        </mxCell>
        <mxCell id="mjiUjwl8vzSuEEX9nJL5-31" value="" style="endArrow=classic;html=1;rounded=0;" parent="1" edge="1">
          <mxGeometry width="50" height="50" relative="1" as="geometry">
            <mxPoint x="715" y="1120" as="sourcePoint" />
            <mxPoint x="435" y="1120" as="targetPoint" />
          </mxGeometry>
        </mxCell>
        <mxCell id="mjiUjwl8vzSuEEX9nJL5-32" value="The new workout is created. This new workout&lt;br&gt;would be a phantom row bc it&amp;nbsp;&lt;br&gt;didn&#39;t show up in the read in T1" style="text;html=1;align=center;verticalAlign=middle;resizable=0;points=[];autosize=1;strokeColor=none;fillColor=none;" parent="1" vertex="1">
          <mxGeometry x="440" y="1060" width="270" height="60" as="geometry" />
        </mxCell>
        <mxCell id="mjiUjwl8vzSuEEX9nJL5-34" value="T1" style="rounded=0;whiteSpace=wrap;html=1;" parent="1" vertex="1">
          <mxGeometry x="125" y="1402" width="120" height="60" as="geometry" />
        </mxCell>
        <mxCell id="mjiUjwl8vzSuEEX9nJL5-35" value="Database" style="rounded=0;whiteSpace=wrap;html=1;" parent="1" vertex="1">
          <mxGeometry x="405" y="1402" width="120" height="60" as="geometry" />
        </mxCell>
        <mxCell id="mjiUjwl8vzSuEEX9nJL5-36" value="T2" style="rounded=0;whiteSpace=wrap;html=1;" parent="1" vertex="1">
          <mxGeometry x="685" y="1402" width="120" height="60" as="geometry" />
        </mxCell>
        <mxCell id="mjiUjwl8vzSuEEX9nJL5-37" value="" style="endArrow=none;html=1;rounded=0;entryX=0.5;entryY=1;entryDx=0;entryDy=0;" parent="1" target="mjiUjwl8vzSuEEX9nJL5-34" edge="1">
          <mxGeometry width="50" height="50" relative="1" as="geometry">
            <mxPoint x="185" y="1812" as="sourcePoint" />
            <mxPoint x="425" y="1642" as="targetPoint" />
          </mxGeometry>
        </mxCell>
        <mxCell id="mjiUjwl8vzSuEEX9nJL5-38" value="" style="endArrow=none;html=1;rounded=0;entryX=0.5;entryY=1;entryDx=0;entryDy=0;" parent="1" edge="1">
          <mxGeometry width="50" height="50" relative="1" as="geometry">
            <mxPoint x="744.5" y="1812" as="sourcePoint" />
            <mxPoint x="744.5" y="1462" as="targetPoint" />
          </mxGeometry>
        </mxCell>
        <mxCell id="mjiUjwl8vzSuEEX9nJL5-39" value="" style="endArrow=none;html=1;rounded=0;entryX=0.5;entryY=1;entryDx=0;entryDy=0;" parent="1" edge="1">
          <mxGeometry width="50" height="50" relative="1" as="geometry">
            <mxPoint x="464.5" y="1812" as="sourcePoint" />
            <mxPoint x="464.5" y="1462" as="targetPoint" />
          </mxGeometry>
        </mxCell>
        <mxCell id="mjiUjwl8vzSuEEX9nJL5-40" value="Phantom Read:" style="text;html=1;align=center;verticalAlign=middle;resizable=0;points=[];autosize=1;strokeColor=none;fillColor=none;" parent="1" vertex="1">
          <mxGeometry x="40" y="1330" width="110" height="30" as="geometry" />
        </mxCell>
        <mxCell id="mjiUjwl8vzSuEEX9nJL5-41" value="" style="endArrow=classic;html=1;rounded=0;" parent="1" edge="1">
          <mxGeometry width="50" height="50" relative="1" as="geometry">
            <mxPoint x="185" y="1512" as="sourcePoint" />
            <mxPoint x="465" y="1512" as="targetPoint" />
          </mxGeometry>
        </mxCell>
        <mxCell id="mjiUjwl8vzSuEEX9nJL5-42" value="The get projection endpoint starts to read&lt;br&gt;the projections for a given user." style="text;html=1;align=center;verticalAlign=middle;resizable=0;points=[];autosize=1;strokeColor=none;fillColor=none;" parent="1" vertex="1">
          <mxGeometry x="205" y="1475" width="240" height="40" as="geometry" />
        </mxCell>
        <mxCell id="mjiUjwl8vzSuEEX9nJL5-43" value="" style="endArrow=classic;html=1;rounded=0;" parent="1" edge="1">
          <mxGeometry width="50" height="50" relative="1" as="geometry">
            <mxPoint x="745" y="1572" as="sourcePoint" />
            <mxPoint x="465" y="1572" as="targetPoint" />
          </mxGeometry>
        </mxCell>
        <mxCell id="mjiUjwl8vzSuEEX9nJL5-44" value="The create projection endpoint starts to create&amp;nbsp;&lt;br&gt;a new projection for the same user" style="text;html=1;align=center;verticalAlign=middle;resizable=0;points=[];autosize=1;strokeColor=none;fillColor=none;" parent="1" vertex="1">
          <mxGeometry x="470" y="1535" width="270" height="40" as="geometry" />
        </mxCell>
        <mxCell id="mjiUjwl8vzSuEEX9nJL5-45" value="" style="endArrow=classic;html=1;rounded=0;" parent="1" edge="1">
          <mxGeometry width="50" height="50" relative="1" as="geometry">
            <mxPoint x="185" y="1652" as="sourcePoint" />
            <mxPoint x="465" y="1652" as="targetPoint" />
          </mxGeometry>
        </mxCell>
        <mxCell id="mjiUjwl8vzSuEEX9nJL5-46" value="The get projection endpoint finishes the read,&amp;nbsp;&lt;br&gt;but it doesn&#39;t read the newly created&amp;nbsp;&lt;br&gt;projection from T2." style="text;html=1;align=center;verticalAlign=middle;resizable=0;points=[];autosize=1;strokeColor=none;fillColor=none;" parent="1" vertex="1">
          <mxGeometry x="185" y="1600" width="270" height="60" as="geometry" />
        </mxCell>
        <mxCell id="mjiUjwl8vzSuEEX9nJL5-47" value="" style="endArrow=classic;html=1;rounded=0;" parent="1" edge="1">
          <mxGeometry width="50" height="50" relative="1" as="geometry">
            <mxPoint x="745" y="1732" as="sourcePoint" />
            <mxPoint x="465" y="1732" as="targetPoint" />
          </mxGeometry>
        </mxCell>
        <mxCell id="mjiUjwl8vzSuEEX9nJL5-48" value="The new projection is created." style="text;html=1;align=center;verticalAlign=middle;resizable=0;points=[];autosize=1;strokeColor=none;fillColor=none;" parent="1" vertex="1">
          <mxGeometry x="515" y="1700" width="180" height="30" as="geometry" />
        </mxCell>
        <mxCell id="mjiUjwl8vzSuEEX9nJL5-49" value="&lt;font style=&quot;font-size: 16px;&quot;&gt;&lt;b&gt;&lt;u&gt;Get Projection:&lt;/u&gt;&lt;/b&gt;&lt;/font&gt;" style="text;html=1;align=center;verticalAlign=middle;resizable=0;points=[];autosize=1;strokeColor=none;fillColor=none;" parent="1" vertex="1">
          <mxGeometry x="-15" y="1270" width="140" height="30" as="geometry" />
        </mxCell>
        <mxCell id="Ve1MwnN7fFuqkVEp6M6I-23" value="Dirty Read:" style="text;html=1;align=center;verticalAlign=middle;resizable=0;points=[];autosize=1;strokeColor=none;fillColor=none;" vertex="1" parent="1">
          <mxGeometry x="905" y="728" width="80" height="30" as="geometry" />
        </mxCell>
        <mxCell id="Ve1MwnN7fFuqkVEp6M6I-24" value="T1" style="rounded=0;whiteSpace=wrap;html=1;" vertex="1" parent="1">
          <mxGeometry x="945" y="790" width="120" height="60" as="geometry" />
        </mxCell>
        <mxCell id="Ve1MwnN7fFuqkVEp6M6I-25" value="Database" style="rounded=0;whiteSpace=wrap;html=1;" vertex="1" parent="1">
          <mxGeometry x="1225" y="790" width="120" height="60" as="geometry" />
        </mxCell>
        <mxCell id="Ve1MwnN7fFuqkVEp6M6I-26" value="T2" style="rounded=0;whiteSpace=wrap;html=1;" vertex="1" parent="1">
          <mxGeometry x="1505" y="790" width="120" height="60" as="geometry" />
        </mxCell>
        <mxCell id="Ve1MwnN7fFuqkVEp6M6I-27" value="" style="endArrow=none;html=1;rounded=0;entryX=0.5;entryY=1;entryDx=0;entryDy=0;" edge="1" parent="1" target="Ve1MwnN7fFuqkVEp6M6I-24">
          <mxGeometry width="50" height="50" relative="1" as="geometry">
            <mxPoint x="1005" y="1200" as="sourcePoint" />
            <mxPoint x="1245" y="1030" as="targetPoint" />
          </mxGeometry>
        </mxCell>
        <mxCell id="Ve1MwnN7fFuqkVEp6M6I-28" value="" style="endArrow=none;html=1;rounded=0;entryX=0.5;entryY=1;entryDx=0;entryDy=0;" edge="1" parent="1">
          <mxGeometry width="50" height="50" relative="1" as="geometry">
            <mxPoint x="1564.5" y="1200" as="sourcePoint" />
            <mxPoint x="1564.5" y="850" as="targetPoint" />
          </mxGeometry>
        </mxCell>
        <mxCell id="Ve1MwnN7fFuqkVEp6M6I-29" value="" style="endArrow=none;html=1;rounded=0;entryX=0.5;entryY=1;entryDx=0;entryDy=0;" edge="1" parent="1">
          <mxGeometry width="50" height="50" relative="1" as="geometry">
            <mxPoint x="1284.5" y="1200" as="sourcePoint" />
            <mxPoint x="1284.5" y="850" as="targetPoint" />
          </mxGeometry>
        </mxCell>
        <mxCell id="Ve1MwnN7fFuqkVEp6M6I-30" value="" style="endArrow=classic;html=1;rounded=0;" edge="1" parent="1">
          <mxGeometry width="50" height="50" relative="1" as="geometry">
            <mxPoint x="1005" y="900" as="sourcePoint" />
            <mxPoint x="1285" y="900" as="targetPoint" />
          </mxGeometry>
        </mxCell>
        <mxCell id="Ve1MwnN7fFuqkVEp6M6I-31" value="T1 creates a goal" style="text;html=1;align=center;verticalAlign=middle;resizable=0;points=[];autosize=1;strokeColor=none;fillColor=none;" vertex="1" parent="1">
          <mxGeometry x="1085" y="868" width="120" height="30" as="geometry" />
        </mxCell>
        <mxCell id="Ve1MwnN7fFuqkVEp6M6I-32" value="" style="endArrow=classic;html=1;rounded=0;" edge="1" parent="1">
          <mxGeometry width="50" height="50" relative="1" as="geometry">
            <mxPoint x="1565" y="960" as="sourcePoint" />
            <mxPoint x="1285" y="960" as="targetPoint" />
          </mxGeometry>
        </mxCell>
        <mxCell id="Ve1MwnN7fFuqkVEp6M6I-34" value="" style="endArrow=classic;html=1;rounded=0;" edge="1" parent="1">
          <mxGeometry width="50" height="50" relative="1" as="geometry">
            <mxPoint x="1005" y="1040" as="sourcePoint" />
            <mxPoint x="1285" y="1040" as="targetPoint" />
          </mxGeometry>
        </mxCell>
        <mxCell id="Ve1MwnN7fFuqkVEp6M6I-36" value="" style="endArrow=classic;html=1;rounded=0;" edge="1" parent="1">
          <mxGeometry width="50" height="50" relative="1" as="geometry">
            <mxPoint x="1565" y="1120" as="sourcePoint" />
            <mxPoint x="1285" y="1120" as="targetPoint" />
          </mxGeometry>
        </mxCell>
        <mxCell id="Ve1MwnN7fFuqkVEp6M6I-38" value="T2 reads the data, including the created goal" style="text;html=1;align=center;verticalAlign=middle;resizable=0;points=[];autosize=1;strokeColor=none;fillColor=none;" vertex="1" parent="1">
          <mxGeometry x="1295" y="923" width="260" height="30" as="geometry" />
        </mxCell>
        <mxCell id="Ve1MwnN7fFuqkVEp6M6I-39" value="T1 fails for some reason, &lt;br&gt;entire transaction is rolled back,&amp;nbsp;&lt;br&gt;goal no longer exists." style="text;html=1;align=center;verticalAlign=middle;resizable=0;points=[];autosize=1;strokeColor=none;fillColor=none;" vertex="1" parent="1">
          <mxGeometry x="1045" y="978" width="200" height="60" as="geometry" />
        </mxCell>
        <mxCell id="Ve1MwnN7fFuqkVEp6M6I-40" value="T2 has read the goal data that no longer exists" style="text;html=1;align=center;verticalAlign=middle;resizable=0;points=[];autosize=1;strokeColor=none;fillColor=none;" vertex="1" parent="1">
          <mxGeometry x="1290" y="1080" width="270" height="30" as="geometry" />
        </mxCell>
        <mxCell id="Ve1MwnN7fFuqkVEp6M6I-42" style="edgeStyle=orthogonalEdgeStyle;rounded=0;orthogonalLoop=1;jettySize=auto;html=1;" edge="1" parent="1" source="Ve1MwnN7fFuqkVEp6M6I-41">
          <mxGeometry relative="1" as="geometry">
            <mxPoint x="1705.000000000001" y="1944.4444444444443" as="targetPoint" />
          </mxGeometry>
        </mxCell>
        <mxCell id="Ve1MwnN7fFuqkVEp6M6I-41" value="&lt;b&gt;&lt;u&gt;&lt;font style=&quot;font-size: 16px;&quot;&gt;Time:&lt;br&gt;&lt;/font&gt;&lt;/u&gt;&lt;/b&gt;" style="text;html=1;align=center;verticalAlign=middle;resizable=0;points=[];autosize=1;strokeColor=none;fillColor=none;" vertex="1" parent="1">
          <mxGeometry x="1670" y="60" width="70" height="30" as="geometry" />
        </mxCell>
      </root>
    </mxGraphModel>
  </diagram>
</mxfile>
